<svg version="1.2" xmlns="http://www.w3.org/2000/svg" viewBox="0 0 400 400" width="400" height="400">
	<title>New Project</title>
	<style>
		.s0 { fill: #000000 } 
	</style>
	<filter id="f0">
		<feFlood flood-color="#ffffff" flood-opacity="1" />
		<feBlend mode="normal" in2="SourceGraphic"/>
		<feComposite in2="SourceAlpha" operator="in" />
	</filter>
	<g id="Folder 1" filter="url(#f0)">
		<path id="Layer" class="s0" d="m219.4 384.6c67.7-24.4 118.9-78.8 140.6-144.9-21.5 21.3-49.9 33-80.3 33-20.9 0-41-5.7-58.4-16.1l-11.4 24.7c-1.8 3.9-5.7 6.5-10.1 6.5-4.4 0-8.3-2.6-10.1-6.5l-11.4-24.7c-17.4 10.5-37.5 16.1-58.4 16.1-30.3 0-58.7-11.7-80.2-32.9 21.8 66 73 120.4 140.7 144.7l16 5.8c2.4 0.9 5 0.9 7.4 0z"/>
		<path id="Layer" class="s0" d="m320.5 164.3c0 30.3-24.6 54.9-54.8 54.9-8.8 0-17.2-2.1-24.5-5.9l-10.5 22.9c14.5 9.2 31.4 14.2 49 14.2 24.7 0 47.8-9.6 65.1-27.1 17.4-17.5 26.9-40.7 26.7-65.3-0.2-27.8-13.1-52.8-33.1-69.6l-46.9 27.6c17.2 9.2 29 27.4 29 48.3z"/>
		<path id="Layer" class="s0" d="m28.1 158c-0.2 24.6 9.3 47.8 26.7 65.3 17.3 17.5 40.4 27.1 65.1 27.1 17.6 0 34.5-5 49-14.2l-10.5-22.9c-7.3 3.8-15.7 5.9-24.5 5.9-30.2 0-54.8-24.6-54.8-54.9 0-20.9 11.8-39.1 29-48.3l-46.9-27.6c-20 16.8-32.9 41.8-33.1 69.6z"/>
		<path id="Layer" fill-rule="evenodd" class="s0" d="m101.4 164.3c0-17.9 14.6-32.4 32.5-32.4 5.5 0 10.7 1.3 15.3 3.8q2.8 1.7 5.4 3.7c7.2 5.9 11.8 14.9 11.8 24.9 0 18-14.6 32.5-32.5 32.5-17.9 0-32.5-14.5-32.5-32.5zm43.7 0c0-6.1-5-11.1-11.2-11.1-6.2 0-11.2 5-11.2 11.1 0 6.2 5 11.2 11.2 11.2 6.2 0 11.2-5 11.2-11.2z"/>
		<path id="Layer" fill-rule="evenodd" class="s0" d="m245 139.3q2.6-1.9 5.4-3.6c4.6-2.5 9.8-3.8 15.3-3.8 17.9 0 32.5 14.5 32.5 32.4 0 18-14.6 32.5-32.5 32.5-17.9 0-32.5-14.5-32.5-32.5 0-10 4.6-19 11.8-25zm31.9 25c0-6.1-5-11.1-11.2-11.1-6.2 0-11.2 5-11.2 11.1 0 6.2 5 11.2 11.2 11.2 6.2 0 11.2-5 11.2-11.2z"/>
		<path id="Layer" class="s0" d="m199.8 249.9l23.1-50.2-10.6-17.7-3.3 4.8c-2 3.1-5.5 4.9-9.2 4.9q0 0 0 0c-3.7 0-7.2-1.8-9.3-4.9l-3.2-4.8-10.6 17.7z"/>
		<path id="Layer" class="s0" d="m129.4 102.6c4.2 2.5 9.1 4.6 14.4 6.3 17.3 5.5 32.4 16.9 42.6 31.9l13.4 19.8 13.4-19.8c10.2-15.1 25.3-26.4 42.6-31.9 5.3-1.7 10.2-3.8 14.4-6.3l96.5-56.8c5.6-3.7 8.9-9.8 8.9-16.5 0-2.8-1.6-4.5-2.6-5.2-1-0.8-3-1.9-5.8-1.1l-28.3 7.9c-26.4 7.4-55 5.7-80.4-4.9l-20-8.3c-24.6-10.3-52.8-10.3-77.4 0l-20 8.3c-25.4 10.6-54 12.3-80.5 4.9l-28.2-7.9c-2.8-0.8-4.8 0.3-5.8 1.1-1 0.7-2.6 2.4-2.6 5.2 0 6.7 3.3 12.8 8.9 16.5z"/>
	</g>
</svg>