<svg version="1.2" xmlns="http://www.w3.org/2000/svg" viewBox="0 0 256 256" width="256" height="256">
	<title>New Project</title>
	<style>
		tspan { white-space:pre } 
		.s0 { fill: #000000 } 
		.t1 { font-size: 41px;fill: #71f5cb;font-weight: 700;font-family: "FiraCode-Bold", "Fira Code" } 
	</style>
	<filter id="f0">
		<feFlood flood-color="#69ffcf" flood-opacity="1" />
		<feBlend mode="normal" in2="SourceGraphic"/>
		<feComposite in2="SourceAlpha" operator="in" />
	</filter>
	<g id="Folder 1" filter="url(#f0)">
		<path id="Layer" class="s0" d="m135.1 162.9c26-9.4 45.6-30.3 54-55.7-8.3 8.2-19.2 12.7-30.9 12.7-8 0-15.7-2.2-22.4-6.2l-4.4 9.5c-0.7 1.5-2.2 2.5-3.9 2.5-1.7 0-3.2-1-3.9-2.5l-4.3-9.5c-6.7 4-14.4 6.2-22.5 6.2-11.6 0-22.5-4.5-30.8-12.7 8.4 25.4 28.1 46.3 54.1 55.6l6.1 2.3c0.9 0.3 1.9 0.3 2.8 0z"/>
		<path id="Layer" class="s0" d="m173.9 78.3c0 11.6-9.5 21-21.1 21-3.4 0-6.6-0.8-9.4-2.2l-4 8.8c5.5 3.5 12 5.4 18.8 5.4 9.5 0 18.4-3.7 25-10.4 6.7-6.7 10.3-15.6 10.3-25.1-0.1-10.6-5.1-20.3-12.7-26.7l-18.1 10.6c6.7 3.6 11.2 10.5 11.2 18.6z"/>
		<path id="Layer" class="s0" d="m61.6 75.8c-0.1 9.5 3.5 18.4 10.2 25.1 6.7 6.7 15.6 10.4 25 10.4 6.8 0 13.3-1.9 18.9-5.4l-4.1-8.8c-2.8 1.4-6 2.2-9.4 2.2-11.6 0-21-9.4-21-21 0-8.1 4.5-15 11.1-18.6l-18-10.6c-7.7 6.4-12.6 16.1-12.7 26.7z"/>
		<path id="Layer" fill-rule="evenodd" class="s0" d="m89.7 78.3c0-6.9 5.6-12.5 12.5-12.5 2.1 0 4.1 0.5 5.9 1.5q1.1 0.6 2.1 1.4c2.7 2.3 4.5 5.7 4.5 9.6 0 6.9-5.6 12.5-12.5 12.5-6.9 0-12.5-5.6-12.5-12.5zm16.8 0c0-2.4-1.9-4.3-4.3-4.3-2.4 0-4.3 1.9-4.3 4.3 0 2.4 1.9 4.3 4.3 4.3 2.4 0 4.3-1.9 4.3-4.3z"/>
		<path id="Layer" fill-rule="evenodd" class="s0" d="m144.9 68.7q1-0.8 2.1-1.4c1.7-1 3.7-1.5 5.8-1.5 6.9 0 12.5 5.6 12.5 12.5 0 6.9-5.6 12.5-12.5 12.5-6.9 0-12.5-5.6-12.5-12.5 0-3.9 1.8-7.3 4.6-9.6zm12.2 9.6c0-2.4-1.9-4.3-4.3-4.3-2.3 0-4.3 1.9-4.3 4.3 0 2.4 2 4.3 4.3 4.3 2.4 0 4.3-1.9 4.3-4.3z"/>
		<path id="Layer" class="s0" d="m127.5 111.1l8.9-19.3-4.1-6.7-1.2 1.8c-0.8 1.2-2.2 1.9-3.6 1.9q0 0 0 0c-1.4 0-2.7-0.7-3.5-1.9l-1.3-1.8-4 6.7z"/>
		<path id="Layer" class="s0" d="m100.5 54.6q2.4 1.4 5.5 2.4c6.7 2.1 12.5 6.5 16.4 12.2l5.1 7.7 5.2-7.7c3.9-5.7 9.7-10.1 16.3-12.2q3.1-1 5.6-2.4l37-21.9c2.2-1.4 3.4-3.7 3.4-6.3 0-1.1-0.6-1.7-1-2-0.3-0.3-1.1-0.7-2.2-0.4l-10.8 3c-10.2 2.9-21.2 2.2-30.9-1.9l-7.7-3.1c-9.5-4-20.3-4-29.8 0l-7.6 3.1c-9.8 4.1-20.8 4.8-30.9 1.9l-10.9-3c-1-0.3-1.8 0.1-2.2 0.4-0.4 0.3-1 0.9-1 2 0 2.6 1.3 4.9 3.4 6.3z"/>
	</g>
	<text id="SNIGDHAOS" style="transform: matrix(1,0,0,1,17,182)" >
		<tspan x="0" y="31.1" class="t1">S</tspan><tspan  y="31.1" class="t1">N</tspan><tspan  y="31.1" class="t1">I</tspan><tspan  y="31.1" class="t1">G</tspan><tspan  y="31.1" class="t1">D</tspan><tspan  y="31.1" class="t1">H</tspan><tspan  y="31.1" class="t1">A</tspan><tspan  y="31.1" class="t1">O</tspan><tspan  y="31.1" class="t1">S</tspan><tspan  y="31.1" class="t1">
</tspan>
	</text>
</svg>